<?xml version="1.0" standalone="no"?>
<!DOCTYPE svg PUBLIC "-//W3C//DTD SVG 20010904//EN"
 "http://www.w3.org/TR/2001/REC-SVG-20010904/DTD/svg10.dtd">
<svg version="1.0" xmlns="http://www.w3.org/2000/svg"
 width="512.000000pt" height="512.000000pt" viewBox="0 0 512.000000 512.000000"
 preserveAspectRatio="xMidYMid meet">
<metadata>
Created by potrace 1.11, written by Peter Selinger 2001-2013
</metadata>
<g transform="translate(0.000000,512.000000) scale(0.100000,-0.100000)"
fill="#000000" stroke="none">
<path d="M188 5112 l-188 -2 0 -2549 c0 -1893 3 -2550 11 -2553 15 -5 148 8
224 23 143 26 344 110 473 197 327 220 526 551 567 942 4 36 7 427 7 870 0
543 3 820 11 850 39 164 179 393 331 545 192 190 411 308 678 364 128 27 362
23 493 -8 218 -52 403 -147 577 -295 72 -62 171 -170 206 -225 9 -14 25 -37
37 -51 18 -23 106 -193 126 -245 35 -90 65 -227 75 -335 4 -47 8 -544 9 -1105
l1 -1020 27 -82 c26 -78 81 -172 137 -236 45 -52 155 -126 236 -159 74 -30 88
-32 226 -36 164 -5 222 7 343 71 89 47 201 164 247 258 74 150 71 94 71 1249
0 1139 0 1148 -19 1282 -79 568 -345 1102 -753 1508 -209 208 -420 360 -675
484 -275 135 -532 210 -846 247 -95 11 -459 15 -515 6 -16 -3 -59 -9 -95 -12
-36 -4 -72 -9 -80 -10 -8 -1 -35 -6 -60 -10 -151 -24 -375 -89 -535 -156 -89
-36 -250 -117 -290 -145 -28 -20 -30 -19 -61 34 -24 41 -127 151 -177 190 -39
30 -160 83 -224 98 -72 17 -233 22 -595 16z"/>
<path d="M2393 3105 c-215 -48 -403 -243 -439 -456 -43 -255 84 -509 310 -619
106 -52 191 -68 304 -58 240 21 429 172 508 408 28 84 26 243 -5 338 -92 283
-387 452 -678 387z"/>
</g>
</svg>
