<?xml version="1.0" standalone="no"?>
<!DOCTYPE svg PUBLIC "-//W3C//DTD SVG 20010904//EN"
 "http://www.w3.org/TR/2001/REC-SVG-20010904/DTD/svg10.dtd">
<svg version="1.0" xmlns="http://www.w3.org/2000/svg"
 width="2000.000000pt" height="2000.000000pt" viewBox="0 0 2000.000000 2000.000000"
 preserveAspectRatio="xMidYMid meet">
<metadata>
Created by potrace 1.11, written by Peter Selinger 2001-2013
</metadata>
<g transform="translate(0.000000,2000.000000) scale(0.100000,-0.100000)"
fill="#000000" stroke="none">
<path d="M17129 15138 c-1 -722 -3 -1333 -5 -1358 -4 -63 -49 -307 -78 -420
-43 -170 -106 -364 -155 -475 -5 -11 -17 -38 -26 -60 -40 -93 -99 -212 -117
-237 -11 -16 -17 -28 -13 -28 3 0 -8 -20 -25 -44 -16 -25 -30 -47 -30 -51 0
-3 -22 -39 -50 -81 -27 -41 -50 -80 -50 -85 0 -5 -4 -9 -10 -9 -5 0 -10 -4
-10 -10 0 -5 -8 -19 -17 -29 -22 -24 -32 -37 -63 -81 -14 -19 -32 -42 -40 -51
-8 -9 -31 -36 -52 -60 -129 -154 -338 -343 -508 -460 -36 -24 -66 -47 -68 -51
-2 -5 -7 -8 -12 -8 -5 0 -44 -22 -87 -48 -170 -105 -425 -219 -641 -286 -192
-60 -479 -121 -657 -141 -33 -4 -71 -9 -85 -11 -25 -4 -147 -12 -265 -19 -33
-2 -99 -4 -147 -4 l-88 -1 0 -995 c0 -789 3 -995 13 -996 6 0 62 -2 122 -4
148 -4 312 -15 420 -29 22 -3 60 -8 85 -11 42 -5 122 -18 180 -29 14 -2 59
-12 100 -21 41 -9 82 -18 90 -20 243 -53 572 -180 805 -310 33 -18 64 -33 69
-33 5 0 12 -4 15 -9 3 -5 40 -31 81 -58 151 -98 277 -200 435 -352 300 -287
586 -763 730 -1213 20 -63 39 -122 42 -130 4 -8 8 -24 10 -35 2 -11 17 -74 32
-140 16 -66 35 -154 42 -195 6 -41 14 -88 17 -105 3 -16 7 -635 9 -1375 2
-763 7 -1346 12 -1350 7 -4 2070 -5 2091 -1 8 2 4 2835 -4 2927 -3 44 -9 97
-11 117 -3 21 -7 52 -9 70 -14 103 -39 237 -61 328 -14 57 -28 112 -30 123
-23 102 -180 531 -207 563 -6 7 -8 13 -5 13 6 0 -127 266 -178 355 -15 28 -33
59 -39 70 -6 11 -13 22 -16 25 -6 6 -25 37 -46 75 -49 89 -311 462 -354 505
-3 3 -18 23 -35 45 -16 22 -39 51 -52 65 -12 14 -31 36 -43 50 -271 323 -573
624 -886 880 -149 123 -157 129 -201 158 -23 15 -44 32 -47 39 -2 6 39 44 92
84 53 41 108 84 122 96 14 13 48 41 75 64 329 272 715 671 979 1009 159 205
355 492 348 513 -1 4 2 7 7 7 22 0 320 569 322 615 0 2 10 28 23 57 62 140
185 551 201 668 2 14 8 52 14 85 18 100 24 154 37 305 4 47 8 723 8 1503 l1
1417 -1052 0 -1053 0 -1 -1312z"/>
<path d="M9347 14334 c-1 -1 -58 -4 -127 -7 -154 -8 -251 -14 -310 -21 -116
-15 -141 -18 -230 -32 -52 -8 -108 -17 -125 -20 -81 -13 -282 -58 -385 -85
-794 -211 -1465 -610 -1875 -1114 -87 -107 -195 -263 -195 -282 0 -7 -3 -13
-7 -13 -9 0 -67 -110 -111 -210 -63 -142 -113 -317 -137 -478 -14 -96 -14
-405 0 -482 30 -170 72 -323 115 -425 44 -101 92 -199 128 -259 23 -37 42 -72
42 -77 0 -5 5 -9 10 -9 6 0 10 -5 10 -10 0 -10 75 -117 91 -130 3 -3 10 -12
15 -21 38 -68 294 -327 429 -434 28 -22 52 -42 55 -45 11 -12 134 -101 161
-117 16 -10 29 -20 29 -23 0 -4 -44 -35 -97 -70 -54 -35 -103 -69 -109 -74 -6
-6 -22 -18 -34 -26 -36 -24 -145 -110 -215 -169 -56 -48 -292 -287 -340 -346
-65 -77 -167 -224 -218 -310 -26 -44 -52 -87 -57 -95 -22 -34 -88 -179 -123
-270 -42 -110 -91 -286 -102 -370 -3 -25 -8 -56 -10 -70 -26 -153 -24 -395 6
-575 6 -33 12 -73 15 -90 23 -140 160 -509 199 -537 5 -4 7 -8 3 -8 -15 0 150
-269 189 -308 7 -7 13 -16 13 -20 0 -4 14 -23 30 -42 16 -19 33 -40 37 -45 82
-109 264 -290 445 -442 53 -43 215 -163 222 -163 4 0 14 -6 21 -14 8 -7 60
-42 117 -76 57 -35 114 -70 128 -78 14 -9 25 -14 25 -11 0 2 14 -6 30 -18 32
-22 313 -160 375 -183 19 -7 59 -24 89 -37 213 -95 733 -241 986 -278 17 -2
39 -6 51 -9 12 -2 45 -7 75 -11 52 -6 75 -9 137 -20 15 -2 61 -7 102 -10 41
-4 91 -8 110 -10 63 -7 353 -18 460 -18 119 0 412 11 450 17 14 3 57 7 95 10
70 7 99 10 178 21 54 8 226 35 252 39 68 13 236 49 270 58 22 5 47 11 55 13 8
2 58 15 110 30 591 167 1079 410 1510 753 123 98 367 343 456 457 227 293 403
655 450 925 3 14 12 61 20 105 22 109 26 418 8 555 -52 394 -213 758 -489
1105 -89 111 -289 318 -298 309 -4 -4 -7 -2 -7 4 0 9 -127 119 -257 222 -6 5
-68 47 -136 93 l-125 84 101 74 c56 40 107 78 114 84 6 5 33 28 59 50 221 183
406 391 538 605 53 85 147 268 158 305 4 11 20 58 37 105 107 295 126 652 52
972 -64 273 -207 560 -401 803 -56 70 -283 303 -351 361 -211 178 -474 347
-744 479 -204 98 -363 160 -690 265 -33 11 -266 69 -304 76 -14 3 -79 16 -145
29 -67 13 -139 26 -161 29 -22 3 -71 10 -110 15 -38 6 -99 13 -135 16 -36 3
-83 8 -105 11 -97 11 -588 26 -598 18z m433 -1238 c19 -3 55 -8 78 -11 24 -4
54 -8 65 -11 12 -2 38 -7 57 -10 19 -3 87 -18 151 -34 405 -101 760 -307 970
-562 24 -29 46 -55 49 -58 16 -16 80 -124 107 -181 62 -131 92 -265 91 -402
-3 -407 -277 -777 -758 -1023 -63 -32 -155 -74 -175 -80 -5 -2 -48 -16 -95
-32 -105 -37 -211 -66 -310 -86 -90 -18 -133 -24 -285 -42 -70 -8 -364 -9
-460 -1 -611 49 -1161 310 -1436 682 -33 44 -63 85 -67 90 -24 32 -93 191
-111 255 -31 115 -43 235 -31 321 17 121 22 144 47 213 88 247 262 455 528
633 77 52 248 143 266 143 8 0 20 5 27 12 6 6 18 13 26 14 7 1 29 9 47 17 92
42 350 112 484 132 22 3 47 7 55 10 8 2 51 7 95 10 44 4 82 8 84 10 5 6 462
-2 501 -9z m-25 -3699 c11 -2 52 -8 90 -12 185 -18 472 -93 669 -175 121 -50
294 -140 324 -167 7 -7 17 -13 22 -13 5 0 15 -6 22 -13 7 -7 43 -34 80 -60
132 -94 280 -249 372 -390 33 -50 115 -213 123 -242 1 -5 11 -44 23 -85 27
-99 33 -153 32 -285 -1 -197 -62 -394 -178 -576 -15 -24 -27 -47 -26 -51 1 -5
-2 -8 -7 -8 -4 0 -25 -21 -45 -47 -309 -400 -907 -678 -1566 -728 -131 -10
-452 -4 -530 10 -14 2 -45 7 -70 10 -230 29 -520 113 -727 211 -50 24 -97 44
-102 44 -6 0 -11 4 -11 9 0 5 -9 13 -21 16 -28 9 -242 154 -299 202 -62 53
-180 172 -210 212 -14 18 -34 45 -46 59 -11 15 -31 45 -45 67 -93 153 -134
258 -164 425 -13 73 -14 277 -1 330 3 14 8 39 10 55 14 95 104 298 182 408 19
26 34 50 34 53 0 3 11 15 26 26 14 11 23 22 21 24 -2 3 34 42 81 87 133 129
142 137 152 137 4 0 10 4 12 9 6 17 227 155 329 206 228 113 527 206 738 230
30 3 57 8 60 9 3 2 44 7 91 11 47 4 87 9 89 10 5 6 443 -2 466 -8z"/>
<path d="M825 13871 c-3 -2 -5 -288 -5 -636 l0 -631 735 1 c405 0 741 -2 748
-5 10 -4 13 -605 13 -2945 l0 -2940 -757 2 -758 2 2 -682 2 -682 2150 0 c1183
-1 2156 1 2163 3 9 3 12 149 12 682 l0 679 -606 -1 c-333 0 -608 3 -612 6 -3
4 -6 1614 -6 3579 l0 3573 -1538 0 c-846 0 -1541 -2 -1543 -5z"/>
</g>
</svg>
